<?xml version="1.0" encoding="UTF-8"?>
<svg xmlns="http://www.w3.org/2000/svg" xmlns:xlink="http://www.w3.org/1999/xlink" width="24px" height="24px" viewBox="0 0 24 24" version="1.1">
<g id="surface1">
<path style=" stroke:none;fill-rule:evenodd;fill:rgb(100%,100%,100%);fill-opacity:1;" d="M 19.65625 4.34375 L 16.484375 1.171875 L 7.515625 1.171875 L 1.171875 7.515625 L 1.171875 16.484375 L 7.515625 22.828125 L 16.484375 22.828125 L 22.828125 16.484375 L 22.828125 7.515625 Z M 19.65625 4.34375 "/>
<path style=" stroke:none;fill-rule:evenodd;fill:rgb(85.098039%,17.647059%,15.294118%);fill-opacity:1;" d="M 16.015625 2.308594 L 18.851562 5.148438 L 21.6875 7.984375 L 21.6875 16.015625 L 16.015625 21.6875 L 7.988281 21.6875 L 5.148438 18.851562 L 2.3125 16.015625 L 2.3125 7.988281 L 5.148438 5.148438 L 7.984375 2.3125 L 16.015625 2.3125 Z M 17.140625 0.160156 L 23.828125 6.855469 C 23.945312 6.972656 24.007812 7.132812 24 7.296875 L 24 16.726562 C 24 16.882812 23.9375 17.027344 23.832031 17.136719 L 17.144531 23.828125 C 17.027344 23.945312 16.867188 24.007812 16.703125 24 L 7.273438 24 C 7.117188 24 6.972656 23.9375 6.863281 23.828125 L 0.175781 17.144531 C 0.0546875 17.027344 -0.0078125 16.867188 0 16.703125 L 0 7.273438 C 0 7.117188 0.0625 6.972656 0.167969 6.863281 L 6.855469 0.175781 C 6.972656 0.0546875 7.132812 -0.0078125 7.296875 0 L 16.726562 0 C 16.882812 0 17.027344 0.0625 17.136719 0.167969 Z M 19.660156 4.335938 L 16.484375 1.171875 L 7.515625 1.171875 L 1.171875 7.515625 L 1.171875 16.488281 L 7.515625 22.832031 L 16.488281 22.832031 L 22.832031 16.484375 L 22.832031 7.515625 L 19.65625 4.34375 Z M 19.660156 4.335938 "/>
<path style=" stroke:none;fill-rule:nonzero;fill:rgb(100%,100%,100%);fill-opacity:1;" d="M 6.128906 14.257812 C 5.996094 14.257812 5.867188 14.257812 5.738281 14.246094 C 5.609375 14.234375 5.488281 14.226562 5.367188 14.210938 C 5.246094 14.195312 5.128906 14.175781 5.015625 14.15625 C 4.90625 14.140625 4.796875 14.113281 4.695312 14.085938 L 4.695312 13.164062 C 4.824219 13.175781 4.972656 13.1875 5.136719 13.195312 L 5.613281 13.214844 L 6.0625 13.214844 C 6.171875 13.214844 6.28125 13.203125 6.390625 13.183594 C 6.464844 13.167969 6.53125 13.136719 6.585938 13.085938 C 6.632812 13.039062 6.65625 12.972656 6.652344 12.910156 L 6.652344 12.835938 C 6.65625 12.757812 6.621094 12.6875 6.558594 12.640625 C 6.496094 12.597656 6.417969 12.574219 6.34375 12.574219 L 6.03125 12.574219 C 5.65625 12.601562 5.285156 12.496094 4.984375 12.273438 C 4.746094 12.078125 4.625 11.726562 4.625 11.25 L 4.625 11.054688 C 4.597656 10.6875 4.742188 10.328125 5.015625 10.078125 C 5.34375 9.839844 5.742188 9.726562 6.148438 9.753906 C 6.324219 9.753906 6.5 9.761719 6.675781 9.78125 C 6.84375 9.800781 7 9.820312 7.140625 9.847656 C 7.289062 9.871094 7.417969 9.898438 7.53125 9.925781 L 7.53125 10.847656 C 7.351562 10.832031 7.140625 10.816406 6.914062 10.808594 C 6.6875 10.796875 6.476562 10.792969 6.289062 10.792969 C 6.191406 10.792969 6.089844 10.800781 5.992188 10.816406 C 5.917969 10.828125 5.851562 10.859375 5.796875 10.914062 C 5.746094 10.96875 5.71875 11.042969 5.722656 11.121094 L 5.722656 11.179688 C 5.71875 11.265625 5.753906 11.351562 5.820312 11.40625 C 5.90625 11.464844 6.007812 11.492188 6.113281 11.484375 L 6.503906 11.484375 C 6.746094 11.476562 6.984375 11.53125 7.199219 11.644531 C 7.378906 11.738281 7.523438 11.886719 7.617188 12.070312 C 7.714844 12.261719 7.761719 12.476562 7.757812 12.695312 L 7.757812 12.890625 C 7.777344 13.191406 7.710938 13.492188 7.5625 13.757812 C 7.429688 13.957031 7.230469 14.097656 7.003906 14.160156 C 6.71875 14.234375 6.425781 14.269531 6.132812 14.265625 Z M 9.179688 14.21875 L 9.179688 10.824219 L 8.066406 10.824219 L 8.066406 9.785156 L 11.460938 9.785156 L 11.460938 10.824219 L 10.351562 10.824219 L 10.351562 14.21875 Z M 13.632812 14.257812 C 13.355469 14.261719 13.078125 14.230469 12.804688 14.164062 C 12.585938 14.109375 12.382812 13.992188 12.21875 13.832031 C 12.042969 13.640625 11.917969 13.402344 11.859375 13.148438 C 11.773438 12.773438 11.734375 12.386719 11.742188 12 C 11.734375 11.613281 11.773438 11.226562 11.859375 10.851562 C 11.917969 10.597656 12.042969 10.359375 12.21875 10.167969 C 12.382812 10.007812 12.585938 9.890625 12.804688 9.835938 C 13.351562 9.714844 13.914062 9.714844 14.460938 9.835938 C 14.679688 9.890625 14.882812 10.007812 15.046875 10.167969 C 15.222656 10.359375 15.34375 10.597656 15.402344 10.851562 C 15.492188 11.226562 15.53125 11.613281 15.523438 12 C 15.53125 12.386719 15.492188 12.773438 15.402344 13.148438 C 15.34375 13.402344 15.222656 13.640625 15.042969 13.832031 C 14.882812 13.992188 14.679688 14.109375 14.460938 14.164062 C 14.1875 14.230469 13.910156 14.261719 13.632812 14.257812 Z M 13.632812 13.21875 C 13.757812 13.222656 13.882812 13.203125 14.003906 13.164062 C 14.097656 13.128906 14.175781 13.058594 14.226562 12.96875 C 14.289062 12.855469 14.328125 12.730469 14.339844 12.601562 C 14.363281 12.398438 14.375 12.195312 14.371094 11.988281 C 14.375 11.78125 14.363281 11.570312 14.339844 11.363281 C 14.328125 11.234375 14.289062 11.109375 14.226562 10.996094 C 14.175781 10.914062 14.097656 10.851562 14.003906 10.820312 C 13.761719 10.753906 13.507812 10.753906 13.265625 10.820312 C 13.171875 10.847656 13.089844 10.910156 13.039062 10.996094 C 12.976562 11.109375 12.9375 11.234375 12.925781 11.363281 C 12.898438 11.574219 12.886719 11.789062 12.890625 12 C 12.886719 12.203125 12.898438 12.40625 12.925781 12.609375 C 12.9375 12.738281 12.972656 12.863281 13.039062 12.976562 C 13.085938 13.070312 13.167969 13.136719 13.265625 13.171875 C 13.382812 13.210938 13.507812 13.230469 13.628906 13.226562 Z M 16.074219 14.21875 L 16.074219 9.785156 L 18.027344 9.785156 C 18.183594 9.785156 18.339844 9.804688 18.492188 9.835938 C 18.652344 9.871094 18.804688 9.941406 18.929688 10.042969 C 19.078125 10.171875 19.191406 10.335938 19.253906 10.523438 C 19.34375 10.796875 19.386719 11.085938 19.375 11.375 C 19.386719 11.664062 19.34375 11.957031 19.257812 12.238281 C 19.195312 12.421875 19.089844 12.589844 18.945312 12.722656 C 18.828125 12.828125 18.683594 12.90625 18.53125 12.949219 C 18.386719 12.984375 18.238281 13 18.09375 13 C 18.015625 13 17.9375 13 17.859375 12.988281 C 17.777344 12.976562 17.695312 12.972656 17.617188 12.957031 L 17.402344 12.914062 L 17.238281 12.890625 L 17.238281 14.226562 Z M 17.234375 11.964844 L 17.902344 11.964844 C 17.972656 11.96875 18.042969 11.945312 18.097656 11.898438 C 18.148438 11.84375 18.183594 11.777344 18.195312 11.703125 C 18.214844 11.597656 18.222656 11.488281 18.21875 11.382812 C 18.222656 11.277344 18.210938 11.175781 18.1875 11.070312 C 18.175781 11 18.140625 10.929688 18.085938 10.875 C 18.039062 10.832031 17.976562 10.808594 17.910156 10.8125 L 17.238281 10.8125 L 17.238281 11.953125 Z M 17.234375 11.964844 "/>
</g>
</svg>
