<?xml version="1.0" encoding="UTF-8"?>
<svg xmlns="http://www.w3.org/2000/svg" xmlns:xlink="http://www.w3.org/1999/xlink" width="24px" height="22px" viewBox="0 0 24 22" version="1.1">
<g id="surface1">
<path style=" stroke:none;fill-rule:nonzero;fill:rgb(81.176471%,12.156863%,14.509804%);fill-opacity:1;" d="M 0.457031 16.632812 L 8.84375 2.039062 L 8.875 1.988281 C 9.226562 1.414062 9.695312 0.929688 10.253906 0.5625 C 10.78125 0.222656 11.398438 0.0390625 12.023438 0.0351562 C 12.65625 0.0351562 13.273438 0.21875 13.804688 0.5625 C 14.359375 0.929688 14.828125 1.417969 15.171875 1.992188 C 15.195312 2.03125 15.21875 2.074219 15.242188 2.113281 L 23.492188 16.535156 L 23.539062 16.621094 C 23.847656 17.242188 24.003906 17.929688 24 18.625 C 23.996094 19.199219 23.851562 19.761719 23.578125 20.265625 C 23.269531 20.828125 22.796875 21.28125 22.222656 21.5625 C 22.1875 21.585938 22.148438 21.601562 22.109375 21.617188 C 21.546875 21.859375 20.941406 21.980469 20.332031 21.960938 L 3.441406 21.960938 C 3.398438 21.960938 3.355469 21.960938 3.3125 21.960938 C 2.898438 21.957031 2.488281 21.878906 2.101562 21.734375 C 1.484375 21.5 0.957031 21.078125 0.585938 20.53125 C 0.210938 19.972656 0.0078125 19.320312 0 18.648438 C -0.0078125 18.0625 0.09375 17.476562 0.304688 16.929688 C 0.347656 16.824219 0.394531 16.726562 0.457031 16.632812 Z M 0.457031 16.632812 "/>
<path style=" stroke:none;fill-rule:evenodd;fill:rgb(99.607843%,78.823529%,0.392157%);fill-opacity:1;" d="M 1.757812 17.484375 L 10.179688 2.820312 C 11.203125 1.195312 12.824219 1.15625 13.867188 2.820312 L 22.152344 17.308594 C 22.816406 18.648438 22.488281 20.453125 20.332031 20.410156 L 3.441406 20.410156 C 2.023438 20.445312 1.109375 19.191406 1.757812 17.484375 Z M 1.757812 17.484375 "/>
<path style=" stroke:none;fill-rule:nonzero;fill:rgb(0.392157%,0.392157%,0.392157%);fill-opacity:1;" d="M 11.242188 16.507812 C 11.425781 16.328125 11.660156 16.21875 11.914062 16.195312 C 12.074219 16.183594 12.234375 16.210938 12.382812 16.265625 C 12.53125 16.324219 12.664062 16.410156 12.773438 16.523438 C 13.03125 16.78125 13.144531 17.148438 13.074219 17.507812 C 13.058594 17.597656 13.03125 17.6875 12.992188 17.773438 C 12.8125 18.171875 12.410156 18.425781 11.972656 18.414062 C 11.820312 18.410156 11.667969 18.375 11.53125 18.308594 C 11.285156 18.191406 11.09375 17.984375 10.992188 17.730469 C 10.957031 17.652344 10.933594 17.566406 10.921875 17.480469 C 10.910156 17.394531 10.90625 17.308594 10.910156 17.222656 C 10.925781 17.085938 10.964844 16.953125 11.019531 16.828125 C 11.074219 16.714844 11.148438 16.609375 11.242188 16.523438 Z M 12.835938 14.492188 C 12.796875 15.4375 11.210938 15.4375 11.179688 14.492188 C 11.015625 12.878906 10.605469 8.726562 10.617188 7.210938 C 10.632812 6.742188 11.007812 6.464844 11.507812 6.359375 C 11.832031 6.292969 12.164062 6.292969 12.484375 6.359375 C 12.996094 6.46875 13.394531 6.75 13.394531 7.230469 L 13.394531 7.277344 Z M 12.835938 14.492188 "/>
</g>
</svg>
